<svg xmlns="http://www.w3.org/2000/svg" width="40" height="40" viewBox="0 0 40 40"><defs><style>.a{fill:#ed1b51;}</style></defs><title>icons</title><path class="a" d="M40,.66V0H0V.66A21,21,0,0,0,13.07,20,21,21,0,0,0,0,39.34V40H40v-.66A21,21,0,0,0,26.93,20,21,21,0,0,0,40,.66ZM24.68,19.37l-2.3.63,2.3.63a19.59,19.59,0,0,1,14,18.05H1.33a19.59,19.59,0,0,1,14-18l2.3-.63-2.3-.63a19.59,19.59,0,0,1-14-18H38.67A19.59,19.59,0,0,1,24.68,19.37Z"/><path class="a" d="M20,18a14.23,14.23,0,0,0,9.25-3.39H10.75A14.23,14.23,0,0,0,20,18Z"/><path class="a" d="M20,24a1.62,1.62,0,1,0-1.62-1.62A1.63,1.63,0,0,0,20,24Z"/><path class="a" d="M20,29.18a1.62,1.62,0,1,0-1.62-1.62A1.62,1.62,0,0,0,20,29.18Z"/><path class="a" d="M4.33,36.72H35.67c0-3.44-7-6.24-15.67-6.24S4.33,33.28,4.33,36.72Z"/></svg>