<svg xmlns="http://www.w3.org/2000/svg" width="40" height="40" viewBox="0 0 40 40"><defs><style>.a{fill:#ed1b51;}</style></defs><title>icons</title><path class="a" d="M12.24,17.82h-.06s-.14.71-.23,1l-.88,2.68h2.25l-.86-2.68C12.39,18.59,12.24,17.82,12.24,17.82Z"/><path class="a" d="M20,0A20,20,0,1,0,40,20,20,20,0,0,0,20,0ZM16.07,25.59h-.66c-.44,0-.77-.08-.84-.32L14,23.44H10.42l-.6,1.83c-.07.23-.33.32-.69.32h-.6c-.63,0-.92-.12-.92-.33A1,1,0,0,1,7.67,25L11,15.33c.09-.24.42-.32.85-.32h.78c.44,0,.77.08.86.32L16.77,25a.71.71,0,0,1,.05.27C16.82,25.47,16.59,25.59,16.07,25.59Zm5.89-4c0,.53-.14.75-.45.75H18.44c-.31,0-.45-.22-.45-.75v-.1c0-.53.14-.75.45-.75h3.07c.31,0,.45.22.45.75Zm9.43,2c.32,0,.45.23.45.75v.47c0,.52-.13.75-.45.75H24.12c-.25,0-.58-.93-.58-1.34a.31.31,0,0,1,0-.15l5-7.06H24.42c-.31,0-.45-.22-.45-.75V15.8c0-.53.14-.76.45-.76h6.87c.24,0,.55,1,.55,1.39a.38.38,0,0,1,0,.12l-5,7Z"/></svg>