<svg xmlns="http://www.w3.org/2000/svg" width="40" height="40" viewBox="0 0 40 40"><defs><style>.a{fill:#ed1b51;}</style></defs><title>icons</title><path class="a" d="M40,.66V0H0V.66A20,20,0,0,0,15,20,20,20,0,0,0,0,39.34V40H40v-.66A20,20,0,0,0,25,20,20,20,0,0,0,40,.66Zm-2.74,37H2.74c0-4,7.73-7.16,17.26-7.16S37.26,33.66,37.26,37.62ZM20,26a1.62,1.62,0,1,1-1.62,1.61A1.62,1.62,0,0,1,20,26Zm-1.62-3.57A1.62,1.62,0,1,1,20,24,1.62,1.62,0,0,1,18.38,22.38ZM20,18.5A16.27,16.27,0,0,1,9.45,14.63h21.1A16.27,16.27,0,0,1,20,18.5Z"/></svg>