<svg xmlns="http://www.w3.org/2000/svg" width="40" height="40" viewBox="0 0 40 40"><defs><style>.a{fill:#ed1b51;}</style></defs><title>icons</title><path class="a" d="M20,0A20,20,0,1,0,40,20,20,20,0,0,0,20,0Zm0,38.68A18.68,18.68,0,1,1,38.68,20,18.71,18.71,0,0,1,20,38.68Z"/><path class="a" d="M13.47,15.33c-.09-.24-.42-.31-.86-.31h-.78c-.43,0-.76.07-.85.31L7.67,25a1,1,0,0,0-.06.27c0,.21.29.33.92.33h.6c.36,0,.62-.09.69-.32l.6-1.83H14l.6,1.83c.07.24.4.32.84.32h.66c.52,0,.75-.12.75-.33a.71.71,0,0,0-.05-.27Zm-2.4,6.13L12,18.78c.09-.25.23-1,.23-1h.06s.15.77.22,1l.86,2.68Z"/><path class="a" d="M21.51,20.77H18.44c-.31,0-.45.22-.45.75v.1c0,.53.14.75.45.75h3.07c.31,0,.45-.22.45-.75v-.1C22,21,21.82,20.77,21.51,20.77Z"/><path class="a" d="M31.84,16.43c0-.39-.31-1.38-.55-1.38H24.42c-.31,0-.45.22-.45.75v.46c0,.53.14.75.45.75H28.6l-5,7.06a.31.31,0,0,0,0,.15c0,.41.33,1.34.58,1.34h7.27c.32,0,.45-.23.45-.75v-.47c0-.52-.13-.75-.45-.75H26.81l5-7A.38.38,0,0,0,31.84,16.43Z"/></svg>