<svg xmlns="http://www.w3.org/2000/svg" width="40" height="40" viewBox="0 0 40 40"><defs><style>.a{fill:#ed1b51;}</style></defs><title>icons</title><path class="a" d="M20,0A20,20,0,1,0,40,20,20,20,0,0,0,20,0Zm0,38.68A18.68,18.68,0,1,1,38.68,20,18.7,18.7,0,0,1,20,38.68Z"/><circle class="a" cx="9.53" cy="18.45" r="2.17"/><path class="a" d="M24.51,21.65a.94.94,0,0,0-1.3.28,3.82,3.82,0,0,1-6.42,0,.94.94,0,1,0-1.58,1,5.7,5.7,0,0,0,9.58,0A1,1,0,0,0,24.51,21.65Z"/><circle class="a" cx="30.47" cy="18.45" r="2.17"/></svg>