<svg xmlns="http://www.w3.org/2000/svg" width="196.85" height="61.74" viewBox="0 0 196.85 61.74"><defs><style>.a{fill:#2de0e0;}.b{fill:#ff004f;}.c{fill:#2d0045;}.d{fill:#fff;}</style></defs><title>with-logo</title><polyline class="a" points="134.06 0 134.06 41.86 154.99 20.93 154.99 0 134.06 0"/><polyline class="b" points="196.85 0 175.92 0 154.99 20.93 154.99 41.86 196.85 0"/><polyline class="c" points="154.99 0 154.99 20.93 175.92 0 154.99 0"/><path class="d" d="M12,36.86a1.38,1.38,0,0,0-.28-.31,1.23,1.23,0,0,0-.37-.21,1.32,1.32,0,0,0-.44-.08,1.41,1.41,0,0,0-.71.17,1.32,1.32,0,0,0-.48.43,1.81,1.81,0,0,0-.26.62,2.84,2.84,0,0,0-.08.72,2.61,2.61,0,0,0,.08.69,1.76,1.76,0,0,0,.26.61,1.36,1.36,0,0,0,1.19.59,1.17,1.17,0,0,0,.89-.35,1.65,1.65,0,0,0,.39-.91h1.2a2.82,2.82,0,0,1-.24,1,2.45,2.45,0,0,1-.53.73,2.24,2.24,0,0,1-.76.46,2.87,2.87,0,0,1-.95.15,2.94,2.94,0,0,1-1.17-.22,2.6,2.6,0,0,1-.87-.62,2.8,2.8,0,0,1-.55-.93,3.55,3.55,0,0,1-.18-1.15A3.68,3.68,0,0,1,8.31,37a2.89,2.89,0,0,1,.55-1,2.78,2.78,0,0,1,.87-.63,2.94,2.94,0,0,1,1.17-.23,2.84,2.84,0,0,1,.88.14,2.38,2.38,0,0,1,.74.39,2,2,0,0,1,.54.64,2.17,2.17,0,0,1,.27.86h-1.2a1.07,1.07,0,0,0-.14-.39"/><path class="d" d="M21.62,38.89a2,2,0,0,0,.27.61,1.49,1.49,0,0,0,.47.43,1.55,1.55,0,0,0,.71.16,1.52,1.52,0,0,0,.71-.16,1.43,1.43,0,0,0,.48-.43,1.76,1.76,0,0,0,.26-.61,2.61,2.61,0,0,0,.08-.69,2.84,2.84,0,0,0-.08-.72,1.81,1.81,0,0,0-.26-.62,1.25,1.25,0,0,0-.48-.43,1.41,1.41,0,0,0-.71-.17,1.43,1.43,0,0,0-.71.17,1.29,1.29,0,0,0-.47.43,2,2,0,0,0-.27.62,3.38,3.38,0,0,0-.08.72A3.1,3.1,0,0,0,21.62,38.89ZM20.49,37a2.87,2.87,0,0,1,.54-1,2.71,2.71,0,0,1,.88-.63,3.07,3.07,0,0,1,2.33,0,2.78,2.78,0,0,1,.87.63,2.89,2.89,0,0,1,.55,1,3.68,3.68,0,0,1,.18,1.17,3.55,3.55,0,0,1-.18,1.15,2.8,2.8,0,0,1-.55.93,2.6,2.6,0,0,1-.87.62,3.19,3.19,0,0,1-2.33,0,2.55,2.55,0,0,1-.88-.62,2.77,2.77,0,0,1-.54-.93,3.3,3.3,0,0,1-.19-1.15A3.42,3.42,0,0,1,20.49,37Z"/><polyline class="d" points="34.25 35.36 34.25 39.96 37 39.96 37 41 33.01 41 33.01 35.36 34.25 35.36"/><polyline class="d" points="45.26 35.36 45.26 39.96 48 39.96 48 41 44.02 41 44.02 35.36 45.26 35.36"/><polyline class="d" points="59.24 35.36 59.24 36.4 56.26 36.4 56.26 37.61 58.99 37.61 58.99 38.57 56.26 38.57 56.26 39.96 59.3 39.96 59.3 41 55.02 41 55.02 35.36 59.24 35.36"/><path class="d" d="M70.07,36.86a1.14,1.14,0,0,0-.27-.31,1.36,1.36,0,0,0-.82-.29,1.46,1.46,0,0,0-.71.17,1.29,1.29,0,0,0-.47.43,1.81,1.81,0,0,0-.26.62,2.84,2.84,0,0,0-.09.72,2.61,2.61,0,0,0,.09.69,1.76,1.76,0,0,0,.26.61,1.49,1.49,0,0,0,.47.43,1.58,1.58,0,0,0,.71.16,1.15,1.15,0,0,0,.89-.35,1.52,1.52,0,0,0,.39-.91h1.2a2.82,2.82,0,0,1-.24,1,2.42,2.42,0,0,1-.52.73,2.34,2.34,0,0,1-.76.46,2.93,2.93,0,0,1-1,.15,2.86,2.86,0,0,1-1.16-.22,2.42,2.42,0,0,1-.87-.62,2.8,2.8,0,0,1-.55-.93,3.3,3.3,0,0,1-.19-1.15A3.42,3.42,0,0,1,66.4,37a2.89,2.89,0,0,1,.55-1,2.57,2.57,0,0,1,.87-.63A2.86,2.86,0,0,1,69,35.22a2.8,2.8,0,0,1,.88.14,2.43,2.43,0,0,1,.75.39,2.12,2.12,0,0,1,.54.64,2.35,2.35,0,0,1,.27.86h-1.2a1.09,1.09,0,0,0-.15-.39"/><polyline class="d" points="78.19 36.4 78.19 35.36 82.81 35.36 82.81 36.4 81.12 36.4 81.12 41 79.88 41 79.88 36.4 78.19 36.4"/><polygon class="d" points="89.78 41 91.02 41 91.02 35.36 89.78 35.36 89.78 41"/><polyline class="d" points="99.65 41 97.83 35.36 99.1 35.36 100.35 39.32 100.37 39.32 101.64 35.36 102.92 35.36 101.05 41 99.65 41"/><polyline class="d" points="113.94 35.36 113.94 36.4 110.96 36.4 110.96 37.61 113.69 37.61 113.69 38.57 110.96 38.57 110.96 39.96 114 39.96 114 41 109.72 41 109.72 35.36 113.94 35.36"/><polyline class="d" points="26.32 31.85 20.92 10.17 20.83 10.17 15.52 31.85 8.43 31.85 0 0 7 0 12.05 19.7 12.13 19.7 17.67 0 24.23 0 29.67 19.97 29.76 19.97 34.98 0 41.85 0 33.28 31.85 26.32 31.85"/><polyline class="d" points="52.01 6.11 52.01 31.85 45.67 31.85 45.67 12.44 52.01 6.11"/><polyline class="d" points="56.28 5.88 56.28 0 82.38 0 82.38 5.88 72.83 5.88 72.83 31.85 65.83 31.85 65.83 5.88 56.28 5.88"/><polyline class="d" points="94.42 0 94.42 12.22 107.31 12.22 107.31 0 114.32 0 114.32 31.85 107.31 31.85 107.31 18.11 94.42 18.11 94.42 31.85 87.42 31.85 87.42 0 94.42 0"/><polyline class="d" points="45.67 6.33 45.67 0 52.01 0 45.67 6.33"/><path class="d" d="M86.61,51.29a.76.76,0,1,0,.73.75.74.74,0,0,0-.73-.75Zm9.5,2.18a3,3,0,1,0,2.93,3,3,3,0,0,0-2.93-3Zm0,4.72A1.7,1.7,0,1,1,97.8,56.5a1.67,1.67,0,0,1-1.65,1.69Zm6.26-4.71h0a2.21,2.21,0,0,0-1.56.59h0v-3L99.5,52.5v6.91h1.24l0-.5a2.14,2.14,0,0,0,1.61.61h0a2.64,2.64,0,0,0,1.89-.89,3.05,3.05,0,0,0,.86-2.13,2.92,2.92,0,0,0-2.73-3Zm-.2,4.72a1.64,1.64,0,0,1-1.36-.73V55.53a1.64,1.64,0,0,1,1.36-.73,1.7,1.7,0,0,1,0,3.4Zm5.88-4.72a2.87,2.87,0,0,0-1.77.55,2.26,2.26,0,0,0-.28.25l.73.75a1.73,1.73,0,0,1,1.26-.44,1.11,1.11,0,0,1,1.2,1v.22H108c-1.72,0-2.63.63-2.63,1.83a1.86,1.86,0,0,0,2.07,1.81,2.07,2.07,0,0,0,1.69-.5l.13-.13v.56h1.28V55.62a2.16,2.16,0,0,0-2.44-2.14Zm1.14,3.66c0,.76-.59,1.26-1.51,1.26-.6,0-1-.3-1-.77s.43-.8,1.28-.8h1.21Zm3.34-2.79v-.77h-1.29V59.4h1.34V56.1h0c0-1,.73-1.2,1.37-1.24V53.45a1.55,1.55,0,0,0-1.43.9ZM86,59.41h1.31V53.57H86Zm4.4-3.62c-1-.09-1.27-.26-1.27-.61s.39-.54,1.1-.54a2.81,2.81,0,0,1,1.76.57l.78-.82s0,0,0,0a3.76,3.76,0,0,0-2.45-.89c-1.38,0-2.37.68-2.37,1.74,0,1.23.93,1.64,2.33,1.77,1.07.1,1.46.28,1.46.7s-.4.67-1.28.67a2.79,2.79,0,0,1-1.86-.6l-.8.84,0,0a3.76,3.76,0,0,0,2.62.91c1.44,0,2.51-.68,2.51-1.86s-1.06-1.73-2.53-1.88Z"/><polyline class="d" points="34.79 51.35 36.16 51.35 36.16 58.2 40.15 58.2 40.15 59.42 34.79 59.42 34.79 51.35"/><path class="d" d="M41,52.57h1.26V51.35H41Zm0,6.85h1.26V53.57H41Z"/><path class="d" d="M43.34,53.57h1.19v.86l0,0a2.13,2.13,0,0,1,.75-.77,2,2,0,0,1,1-.27,2.09,2.09,0,0,1,1.47.49,2,2,0,0,1,.54,1.5v4H47.08V55.75a1.66,1.66,0,0,0-.29-1,1,1,0,0,0-.82-.31,1.32,1.32,0,0,0-.57.12,1.27,1.27,0,0,0-.43.33,1.69,1.69,0,0,0-.28.49,2,2,0,0,0-.09.6v3.45H43.34V53.57"/><polyline class="d" points="49.41 51.35 50.66 51.35 50.66 55.94 52.92 53.57 54.46 53.57 52.28 55.72 54.67 59.42 53.14 59.42 51.41 56.58 50.66 57.33 50.66 59.42 49.41 59.42 49.41 51.35"/><path class="d" d="M56,56.83a2.39,2.39,0,0,0,.1.66,1.51,1.51,0,0,0,.28.55,1.26,1.26,0,0,0,.47.38,1.45,1.45,0,0,0,.68.14,1.51,1.51,0,0,0,.89-.24,1.47,1.47,0,0,0,.5-.73h1.18a2.37,2.37,0,0,1-.34.85,2.33,2.33,0,0,1-.58.63,2.85,2.85,0,0,1-.76.38,3,3,0,0,1-.89.13,3,3,0,0,1-1.19-.23,2.5,2.5,0,0,1-.87-.63,2.86,2.86,0,0,1-.54-1,4.1,4.1,0,0,1-.18-1.25,3.57,3.57,0,0,1,.2-1.18,2.86,2.86,0,0,1,.55-1,2.5,2.5,0,0,1,.86-.68,2.58,2.58,0,0,1,1.14-.24,2.47,2.47,0,0,1,1.2.28,2.76,2.76,0,0,1,.89.77,3.22,3.22,0,0,1,.51,1.09,3.59,3.59,0,0,1,.08,1.27ZM58.9,56a2.22,2.22,0,0,0-.13-.58,1.62,1.62,0,0,0-.28-.5,1.53,1.53,0,0,0-.45-.34,1.33,1.33,0,0,0-.57-.13,1.46,1.46,0,0,0-.6.12,1.39,1.39,0,0,0-.46.33,1.77,1.77,0,0,0-.31.49A2.07,2.07,0,0,0,56,56Z"/><path class="d" d="M66.45,59.42H65.27v-.79h0a1.54,1.54,0,0,1-.74.73,2.37,2.37,0,0,1-1,.22,2.66,2.66,0,0,1-1.17-.24,2.36,2.36,0,0,1-.83-.67,2.75,2.75,0,0,1-.5-1,4.41,4.41,0,0,1-.16-1.23A4,4,0,0,1,61,55.09a2.83,2.83,0,0,1,.55-1,2.31,2.31,0,0,1,.79-.55,2.42,2.42,0,0,1,.91-.18,2.48,2.48,0,0,1,.54.06,2,2,0,0,1,.53.16,2,2,0,0,1,.46.29,1.42,1.42,0,0,1,.36.41h0v-3h1.25Zm-4.37-2.86a2.69,2.69,0,0,0,.1.74,2,2,0,0,0,.28.64,1.41,1.41,0,0,0,.49.45,1.32,1.32,0,0,0,.7.17,1.37,1.37,0,0,0,.72-.18,1.6,1.6,0,0,0,.5-.47,2.11,2.11,0,0,0,.28-.67,3.08,3.08,0,0,0,.1-.75A2.36,2.36,0,0,0,64.82,55a1.38,1.38,0,0,0-1.15-.55,1.43,1.43,0,0,0-.74.19,1.53,1.53,0,0,0-.49.49,1.87,1.87,0,0,0-.27.68,3.31,3.31,0,0,0-.09.77Z"/><path class="d" d="M70.35,51.35h1.26v3h0A1.66,1.66,0,0,1,72,54a1.69,1.69,0,0,1,.41-.29,1.91,1.91,0,0,1,.47-.18,2.05,2.05,0,0,1,.49-.06,2.66,2.66,0,0,1,1.17.24,2.26,2.26,0,0,1,.83.67,2.91,2.91,0,0,1,.49,1,4.44,4.44,0,0,1,0,2.36,3.14,3.14,0,0,1-.45,1,2.29,2.29,0,0,1-.77.68,2.18,2.18,0,0,1-1.08.25,3.77,3.77,0,0,1-.58,0,2,2,0,0,1-.55-.15,2.27,2.27,0,0,1-.48-.29,1.48,1.48,0,0,1-.36-.48h0v.8H70.35Zm4.37,5.15a3.31,3.31,0,0,0-.09-.77,2.34,2.34,0,0,0-.3-.66,1.65,1.65,0,0,0-.49-.46,1.31,1.31,0,0,0-.69-.18A1.37,1.37,0,0,0,72,55a2.61,2.61,0,0,0-.4,1.5,3,3,0,0,0,.11.82A1.92,1.92,0,0,0,72,58a1.54,1.54,0,0,0,.5.42,1.33,1.33,0,0,0,.67.16,1.39,1.39,0,0,0,.73-.18,1.57,1.57,0,0,0,.49-.47,1.79,1.79,0,0,0,.27-.65,3.22,3.22,0,0,0,.08-.76Z"/><path class="d" d="M76.13,53.57H77.5L79,57.94h0l1.44-4.37h1.31l-2.21,6.17c-.11.26-.21.52-.3.76a2.68,2.68,0,0,1-.37.64,1.62,1.62,0,0,1-.53.44,1.74,1.74,0,0,1-.81.16,4.94,4.94,0,0,1-.87-.07V60.59l.3,0a1.36,1.36,0,0,0,.29,0,.9.9,0,0,0,.36-.06.6.6,0,0,0,.24-.16,1.13,1.13,0,0,0,.16-.26c0-.1.08-.21.12-.34l.14-.45-2.15-5.83"/></svg>